<svg width="42" height="42" viewBox="0 0 42 42" fill="none" xmlns="http://www.w3.org/2000/svg">
<path d="M0 21C0 9.40202 9.40202 0 21 0V0V0C32.598 0 42 9.40202 42 21V21C42 32.598 32.598 42 21 42V42C9.40202 42 0 32.598 0 21V21Z" fill="#326BFF"/>
<path fill-rule="evenodd" clip-rule="evenodd" d="M21.4298 15.188C19.1198 15.188 17.2601 16.9304 17.2601 19.0664C17.2601 19.4323 17.3147 19.7864 17.4155 20.1206C17.833 20.2346 18.2244 20.4057 18.5772 20.6275C18.6498 20.6689 18.7127 20.7237 18.7623 20.7887C18.8118 20.8536 18.8469 20.9273 18.8655 21.0054C18.8841 21.0835 18.8857 21.1642 18.8704 21.2429C18.8551 21.3216 18.823 21.3965 18.7762 21.4633C18.7294 21.53 18.6688 21.5871 18.598 21.6312C18.5272 21.6753 18.4477 21.7054 18.3642 21.7198C18.2807 21.7342 18.195 21.7326 18.1123 21.715C18.0295 21.6974 17.9514 21.6642 17.8825 21.6175C17.3927 21.3115 16.8178 21.1491 16.2302 21.151C14.583 21.151 13.26 22.3944 13.26 23.9119C13.26 25.4294 14.583 26.672 16.2302 26.672H24.6302C26.9402 26.672 28.8 24.9296 28.8 22.7936C28.8 21.1011 27.6324 19.6557 25.9961 19.1282C25.5564 18.9864 25.0949 18.9142 24.6302 18.9144C24.1405 18.9144 23.6726 18.9936 23.2375 19.1361C23.0808 19.1844 22.9102 19.1728 22.7624 19.1038C22.6147 19.0348 22.5015 18.9139 22.4471 18.7671C22.3928 18.6203 22.4017 18.4593 22.4719 18.3186C22.5421 18.1779 22.668 18.0688 22.8226 18.0146C23.6373 17.7465 24.5076 17.6637 25.3627 17.7731C25.0691 17.0129 24.5338 16.3567 23.8299 15.894C23.1261 15.4314 22.2879 15.1848 21.4298 15.188ZM26.768 18.135C26.2985 15.7772 24.0826 14 21.4298 14C18.4378 14 16.0001 16.262 16.0001 19.0664C16.0001 19.3729 16.0295 19.6739 16.0858 19.9653C13.8228 20.0366 12 21.7695 12 23.9119C12 26.0986 13.9009 27.86 16.2302 27.86H24.6302C27.6215 27.86 30.06 25.598 30.06 22.7936C30.06 20.6995 28.7 18.9088 26.768 18.135Z" fill="white"/>
</svg>
